<?xml version="1.0" standalone="no"?>
<!DOCTYPE svg PUBLIC "-//W3C//DTD SVG 20010904//EN"
 "http://www.w3.org/TR/2001/REC-SVG-20010904/DTD/svg10.dtd">
<svg version="1.0" xmlns="http://www.w3.org/2000/svg"
 width="128.000000pt" height="128.000000pt" viewBox="0 0 128.000000 128.000000"
 preserveAspectRatio="xMidYMid meet">
<metadata>
Created by potrace 1.14, written by Peter Selinger 2001-2017
</metadata>
<g transform="translate(0.000000,128.000000) scale(0.100000,-0.100000)"
fill="#000000" stroke="none">
<path d="M610 1267 c-14 -7 -31 -26 -38 -42 -11 -24 -51 -52 -192 -133 -104
-60 -189 -103 -202 -102 -43 4 -58 0 -78 -20 -26 -26 -26 -74 0 -100 19 -19
20 -33 20 -226 0 -191 -1 -208 -20 -231 -26 -33 -26 -77 0 -103 20 -20 35 -24
78 -20 13 1 98 -42 202 -102 141 -81 181 -109 192 -133 17 -38 62 -61 97 -49
14 5 35 26 46 47 17 31 47 53 193 136 150 87 177 99 206 94 69 -11 111 72 66
130 -18 23 -20 40 -20 227 0 187 2 204 20 227 28 36 26 78 -6 110 -21 20 -32
24 -60 20 -29 -5 -56 7 -209 96 -147 84 -179 106 -190 133 -21 50 -58 65 -105
41z m-10 -310 l0 -172 40 0 40 0 2 172 3 172 177 -102 c98 -56 178 -104 178
-107 0 -3 -67 -43 -148 -89 -81 -47 -149 -86 -152 -88 -3 -3 3 -9 13 -14 9 -6
17 -19 17 -29 0 -11 4 -20 9 -20 6 0 76 38 156 85 81 47 149 85 151 85 2 0 4
-94 4 -210 0 -115 -2 -210 -4 -210 -2 0 -70 38 -151 85 -80 47 -150 85 -156
85 -5 0 -9 -9 -9 -20 0 -10 -8 -23 -17 -29 -10 -5 -16 -11 -13 -14 3 -2 71
-41 152 -88 81 -46 148 -86 148 -89 0 -3 -80 -51 -178 -107 l-177 -102 -3 172
-2 172 -40 0 -40 0 0 -173 c0 -96 -4 -172 -8 -170 -26 10 -352 203 -352 208 0
3 30 23 68 45 228 132 235 137 218 147 -9 5 -16 18 -16 28 0 11 -3 20 -6 20
-4 0 -72 -38 -153 -85 -81 -47 -151 -85 -154 -85 -4 0 -7 95 -7 210 0 116 3
210 7 210 3 0 73 -38 154 -85 81 -47 149 -85 153 -85 3 0 6 9 6 20 0 10 7 23
16 28 17 10 10 15 -218 147 -38 22 -68 42 -68 45 0 6 339 208 353 209 4 1 7
-77 7 -172z"/>
</g>
</svg>
